<svg xmlns="http://www.w3.org/2000/svg" x="0px" y="0px" width="100" height="100"
  viewBox="0,0,256,256">
  <g fill="#ffffff" fill-rule="nonzero" stroke="none" stroke-width="1" stroke-linecap="butt"
    stroke-linejoin="miter" stroke-miterlimit="10" stroke-dasharray="" stroke-dashoffset="0"
    font-family="none" font-weight="none" font-size="none" text-anchor="none"
    style="mix-blend-mode: normal">
    <g transform="scale(8.53333,8.53333)">
      <path
        d="M5,5c-1.65469,0 -3,1.34531 -3,3v14c0,1.65469 1.34531,3 3,3h20c1.65469,0 3,-1.34531 3,-3v-14c0,-1.65469 -1.34531,-3 -3,-3zM5,7h20c0.15469,0 0.30156,0.03672 0.43906,0.09766l-10.43906,8.69766l-10.43906,-8.69766c0.1375,-0.06094 0.28438,-0.09766 0.43906,-0.09766zM4.05469,8.65156l7.69531,6.41172l-7.74844,6.83984c-0.00312,-0.03125 -0.00156,-0.06172 -0.00156,-0.09375v-13c0,-0.05625 0.04375,-0.10859 0.05469,-0.15781zM25.94531,8.65156c0.01094,0.04922 0.05469,0.10156 0.05469,0.15781v13c0,0.03203 0.00156,0.0625 -0.00156,0.09375l-7.74844,-6.83984zM13.28906,16.31094l2.07188,1.72578c0.18594,0.15469 0.45313,0.15469 0.63906,0l2.07188,-1.72578l7.49844,6.62344c-0.1875,0.10547 -0.39844,0.17188 -0.62812,0.17188h-20c-0.22969,0 -0.44062,-0.06641 -0.62812,-0.17188z"></path>
    </g>
  </g>
</svg>
